<svg fill="#ffffff" role="img" viewBox="0 0 24 24" xmlns="http://www.w3.org/2000/svg">
  <title>Firebase</title>
  <path d="M19.455 8.369c-.538-.748-1.778-2.285-3.681-4.569-.826-.991-1.535-1.832-1.884-2.245a146 146 0 0 0-.488-.576l-.207-.245-.113-.133-.022-.032-.01-.005L12.57 0l-.609.488c-1.555 1.246-2.828 2.851-3.681 4.64-.523 1.064-.864 2.105-1.043 3.176-.047.241-.088.489-.121.738-.209-.017-.421-.028-.632-.033-.018-.001-.035-.002-.059-.003a7.46 7.46 0 0 0-2.28.274l-.317.089-.163.286c-.765 1.342-1.198 2.869-1.252 4.416-.07 2.01.477 3.954 1.583 5.625 1.082 1.633 2.61 2.882 4.42 3.611l.236.095.071.025.003-.001a9.59 9.59 0 0 0 2.941.568q.171.006.342.006c1.273 0 2.513-.249 3.69-.742l.008.004.313-.145a9.63 9.63 0 0 0 3.927-3.335c1.01-1.49 1.577-3.234 1.641-5.042.075-2.161-.643-4.304-2.133-6.371M12.372 15.064c.328 1.244.264 2.44-.191 3.558-1.135-1.12-1.967-2.352-2.475-3.665-.543-1.404-.87-2.74-.974-3.975.48.157.922.366 1.315.622 1.132.737 1.914 1.902 2.325 3.461zm.207 6.022c.482.368.99.712 1.513 1.028-.771.21-1.565.302-2.369.273a8 8 0 0 1-1.073-.12c-.73-.139-1.441-.388-2.102-.74a8.2 8.2 0 0 1-1.795-1.316 8.1 8.1 0 0 1-1.338-1.828 8.15 8.15 0 0 1-.82-2.247 7.9 7.9 0 0 1-.098-2.426c.045-.548.148-1.086.304-1.603.19.077.381.147.574.211.282 1.521.72 3.109 1.428 4.633.682 1.469 1.673 2.822 2.956 4.026a9 9 0 0 0 .82.109zm6.674-3.075a8.1 8.1 0 0 1-3.013 2.596c-.437.212-.891.379-1.355.5a18 18 0 0 1-1.633-1.154c-1.531-1.267-2.716-2.78-3.522-4.498-.63-1.352-1.028-2.78-1.287-4.146a6 6 0 0 1 1.195-.276c.025 0 .049.002.073.003.165.005.33.016.493.033.146 1.38.497 2.837 1.079 4.323.601 1.555 1.536 2.919 2.778 4.056.198.18.402.355.609.524.109-.279.198-.567.265-.862.339-1.498.164-3.054-.513-4.497-.489-1.045-1.238-1.896-2.08-2.577.049-.32.111-.638.188-.951.153-.644.368-1.272.636-1.873.397-.872.917-1.675 1.54-2.383.324.389.671.809.996 1.199 1.852 2.222 3.044 3.698 3.545 4.394 1.286 1.789 1.903 3.627 1.838 5.46a7.9 7.9 0 0 1-.631 2.729z"/>
</svg>
